# xmcd
#
# Track frame offsets:
#	150
#	4680
#	6857
#	12744
#	21550
#	23979
#	32467
#	34176
#	46131
#	50186
#	57663
#	66496
#	69857
#	74627
#
# Disc length: 1910 seconds
#
# Revision: 1
# Processed by: cddbd v1.5.2PL0 Copyright (c) Steve Scherf et al.
# Submitted via: audiograbber 1.83.01
#
DISCID=c907740e
DTITLE=100000 Tonnen Kruppstahl - Kill your kids and die
DYEAR=2011
DGENRE=Metal
TTITLE0=Menschenfriedhof
TTITLE1=Fackeln
TTITLE2=Death After Life
TTITLE3=Lying In The Dying
TTITLE4=Born In The CD of U
TTITLE5=Widenatürlicher Unmensch
TTITLE6=Altersversagen Und Pest
TTITLE7=Woche Frust
TTITLE8=Asileichen
TTITLE9=Lebenshaltungskotzen
TTITLE10=Force Of Fuck
TTITLE11=Sex Truth Death
TTITLE12=Aller Halt Ma Dein Hund Fest 
TTITLE13=Schwarze Borsten
EXTD=
EXTT0=
EXTT1=
EXTT2=
EXTT3=
EXTT4=
EXTT5=
EXTT6=
EXTT7=
EXTT8=
EXTT9=
EXTT10=
EXTT11=
EXTT12=
EXTT13=
PLAYORDER=
